<svg width="93" height="28" viewBox="0 0 93 28" fill="none" xmlns="http://www.w3.org/2000/svg">
<path d="M28.0223 6.90556C27.9895 6.6044 27.8022 6.33785 27.5222 6.20731L14.3842 0.0823164C14.1494 -0.0271133 13.8782 -0.0271133 13.6434 0.0823164L0.50543 6.20731C0.225481 6.33785 0.0381549 6.60435 0.00536468 6.90556C0.00465304 6.91185 0 6.99564 0 7.00023V21.8752C0 22.233 0.218036 22.5548 0.550592 22.6876L13.6886 27.9376C13.793 27.9793 13.9035 28.0002 14.0139 28.0002C14.1243 28.0002 14.2347 27.9794 14.3391 27.9376L27.4771 22.6876C27.8097 22.5548 28.0277 22.233 28.0277 21.8752V7.00023C28.0277 6.99564 28.023 6.9118 28.0223 6.90556ZM14.0139 1.84079L24.9482 6.93843L20.7378 8.62095L9.59769 3.89967L14.0139 1.84079ZM7.46184 4.89542L18.4291 9.54347L14.0139 11.3078L3.07955 6.93843L7.46184 4.89542ZM1.75173 8.2926L13.138 12.8426V25.8328L1.75173 21.2828V8.2926ZM14.8897 25.8328V12.8426L26.276 8.2926V21.2828L14.8897 25.8328Z" fill="#0A143A"/>
<path d="M45.837 19.169H39.4383L38.2218 22.8148H34.3413L40.9346 5.12036H44.3164L50.9462 22.8148H47.0657L45.837 19.169ZM40.4237 16.2159H44.8517L42.6255 9.59259L40.4237 16.2159Z" fill="#0A143A"/>
<path d="M64.2302 16.3617C64.2302 18.4682 63.7801 20.1128 62.8799 21.2957C61.9797 22.4705 60.7227 23.0579 59.1088 23.0579C57.6815 23.0579 56.5421 22.511 55.6905 21.4172L55.5324 22.8148H52.3695V4.14814H55.8852V10.8443C56.6961 9.89641 57.7626 9.42245 59.0845 9.42245C60.6903 9.42245 61.9473 10.0139 62.8556 11.1968C63.772 12.3715 64.2302 14.0283 64.2302 16.1672V16.3617ZM60.7146 16.1065C60.7146 14.7778 60.5037 13.8096 60.082 13.202C59.6603 12.5862 59.0318 12.2783 58.1965 12.2783C57.0773 12.2783 56.3069 12.7361 55.8852 13.6516V18.8409C56.315 19.7645 57.0935 20.2263 58.2208 20.2263C59.3562 20.2263 60.1023 19.6672 60.4591 18.5492C60.6294 18.0145 60.7146 17.2002 60.7146 16.1065Z" fill="#0A143A"/>
<path d="M70.118 22.8148H66.5902V9.6655H70.118V22.8148ZM66.3834 6.26273C66.3834 5.7361 66.5578 5.30266 66.9065 4.96238C67.2633 4.6221 67.7458 4.45196 68.3541 4.45196C68.9542 4.45196 69.4327 4.6221 69.7895 4.96238C70.1464 5.30266 70.3248 5.7361 70.3248 6.26273C70.3248 6.79745 70.1423 7.23495 69.7774 7.57523C69.4205 7.9155 68.9461 8.08564 68.3541 8.08564C67.7621 8.08564 67.2836 7.9155 66.9186 7.57523C66.5618 7.23495 66.3834 6.79745 66.3834 6.26273Z" fill="#0A143A"/>
<path d="M77.2344 6.43286V9.6655H79.4849V12.2419H77.2344V18.8044C77.2344 19.2905 77.3277 19.6389 77.5142 19.8495C77.7007 20.0602 78.0576 20.1655 78.5847 20.1655C78.974 20.1655 79.3186 20.1371 79.6187 20.0804V22.7419C78.9294 22.9525 78.2198 23.0579 77.4899 23.0579C75.0245 23.0579 73.7674 21.8142 73.7188 19.327V12.2419H71.7967V9.6655H73.7188V6.43286H77.2344Z" fill="#0A143A"/>
<path d="M80.5311 16.1186C80.5311 14.8142 80.7825 13.6516 81.2853 12.6308C81.7881 11.6099 82.5099 10.82 83.4506 10.261C84.3995 9.70196 85.4984 9.42245 86.7473 9.42245C88.5234 9.42245 89.971 9.96527 91.0901 11.0509C92.2174 12.1366 92.8459 13.6111 92.9757 15.4745L93 16.3738C93 18.3912 92.4364 20.0116 91.3091 21.2349C90.1818 22.4502 88.6693 23.0579 86.7716 23.0579C84.8739 23.0579 83.3574 22.4502 82.222 21.2349C81.0947 20.0197 80.5311 18.3669 80.5311 16.2766V16.1186ZM84.0467 16.3738C84.0467 17.6215 84.2819 18.5775 84.7523 19.2419C85.2226 19.8981 85.8958 20.2263 86.7716 20.2263C87.6232 20.2263 88.2882 19.9022 88.7666 19.254C89.2451 18.5978 89.4844 17.5527 89.4844 16.1186C89.4844 14.8952 89.2451 13.9473 88.7666 13.2749C88.2882 12.6024 87.615 12.2662 86.7473 12.2662C85.8876 12.2662 85.2226 12.6024 84.7523 13.2749C84.2819 13.9392 84.0467 14.9722 84.0467 16.3738Z" fill="#0A143A"/>
</svg>
